<?xml version="1.0" encoding="UTF-8"?>
<svg version="1.1" xmlns="http://www.w3.org/2000/svg" width="512" height="512">
<path d="M0 0 C0.70753418 0.16838379 1.41506836 0.33676758 2.14404297 0.51025391 C41.63724511 10.22291833 78.09724152 35.08578525 103 67 C103.4321582 67.55042969 103.86431641 68.10085937 104.30957031 68.66796875 C135.4567454 108.64055106 149.15303817 160.9671658 143.12475586 211.21069336 C139.0542653 239.78246869 129.45461275 272.99642065 110 295 C109.46503906 295.64324219 108.93007813 296.28648437 108.37890625 296.94921875 C96.65252961 309.96228011 78.40542961 317.21801661 61.25 318.21875 C40.72509832 318.87770343 23.27837229 312.13883389 7.6484375 299.02734375 C-6.09623323 286.10523054 -13.11363806 267.42610077 -13.99609375 248.89453125 C-14.0118687 233.16690493 -9.06510918 219.80059686 -2.234375 205.83984375 C1.38781462 197.50651511 0.92926897 187.90404055 -1.96484375 179.41015625 C-6.08818307 169.80977754 -13.31771914 162.10521766 -22.87890625 157.78125 C-33.28956193 153.94675435 -43.50056227 154.28867967 -53.65234375 158.77734375 C-69.70258169 167.1362863 -76.71760429 184.86466175 -82.05151367 201.2734375 C-85.53798063 212.58221532 -87.4532109 224.17568561 -88 236 C-88.04125 236.76828125 -88.0825 237.5365625 -88.125 238.328125 C-88.82480236 264.04586156 -80.91573493 287.9366451 -68.578125 310.1328125 C-64.93472971 316.7522485 -62.74411955 321.38255692 -64 329 C-65.67586737 333.08966811 -67.91183043 336.06296509 -71.25 338.9375 C-76.56068124 340.98935411 -81.6772923 341.71006446 -87.1875 340 C-95.53171147 336.14173494 -99.42684505 327.16021366 -103.4375 319.375 C-104.29009399 317.72153564 -104.29009399 317.72153564 -105.15991211 316.03466797 C-124.97648188 276.6395653 -127.91956642 229.37432332 -114.25 187.5625 C-105.71000347 162.82657625 -94.16556422 140.58739946 -70 128 C-65.73787775 126.05682826 -61.4615185 124.42376624 -57 123 C-55.84371094 122.63068359 -55.84371094 122.63068359 -54.6640625 122.25390625 C-37.1583308 117.8006938 -17.38539489 120.87325459 -1.66796875 129.37890625 C15.61214536 139.87853635 27.72423778 155.42862403 33 175 C37.48806137 196.0041272 33.31646342 213.34082857 24.29296875 232.24609375 C20.11319584 241.14863122 19.7779161 249.74346198 22.5625 259.125 C26.45808857 269.58086793 33.03332292 276.05773293 43 281 C53.51114205 284.60451131 64.32106406 284.38616106 74.35546875 279.5234375 C91.91279688 269.40917167 99.57806898 244.62469657 104.7109375 226.03125 C115.39545108 185.22169596 108.32898381 142.44830368 87.68383789 106.0078125 C77.96300943 89.48584619 65.29975025 74.55662953 50 63 C48.95328125 62.19949219 47.9065625 61.39898437 46.828125 60.57421875 C13.57519668 35.68069363 -27.50461782 24.69729998 -68.81054688 29.77172852 C-85.972438 32.25704241 -102.44388856 37.3842407 -118 45 C-118.62036133 45.29600098 -119.24072266 45.59200195 -119.87988281 45.89697266 C-150.80737974 60.78173522 -174.32488988 86.8942564 -190 117 C-190.4021875 117.76634766 -190.804375 118.53269531 -191.21875 119.32226562 C-208.31891605 152.3202423 -216.94285667 189.27333769 -217.53417969 226.39575195 C-217.69199498 231.68062404 -218.87981758 235.72876133 -222.53515625 239.64453125 C-228.52302298 244.22348816 -232.51025065 244.73449199 -240 244 C-245.3495212 242.2916675 -248.36232205 238.8695593 -251 234 C-262.91835591 197.06581743 -239.529934 136.3693592 -222.8359375 103.72363281 C-213.06854356 85.09469195 -201.38603616 68.3710673 -187 53 C-186.12859375 52.06285156 -185.2571875 51.12570313 -184.359375 50.16015625 C-172.89257327 38.11273171 -159.45911179 28.1754791 -145 20 C-144.38253906 19.64486328 -143.76507813 19.28972656 -143.12890625 18.92382812 C-99.64635124 -5.91719588 -48.43207518 -11.66777401 0 0 Z " fill="#6A7DFF" transform="translate(307,146)"/>
<path d="M0 0 C20.9213794 17.65215168 34.16248535 40.42326086 41.57641602 66.60351562 C42.08881836 68.37082031 42.08881836 68.37082031 42.61157227 70.17382812 C47.28470158 89.95311965 46.53501461 114.20859465 40.57641602 133.60351562 C40.36210937 134.32490723 40.14780273 135.04629883 39.92700195 135.78955078 C37.48362609 143.83277424 34.38595247 151.45401161 30.51391602 158.91601562 C30.19777344 159.53250977 29.88163086 160.14900391 29.5559082 160.78417969 C26.87246248 165.70245405 23.92950792 168.81915166 18.57641602 170.60351562 C11.45706927 171.29504453 6.26345655 171.12993565 0.57641602 166.60351562 C-3.14201178 161.9316448 -4.27659778 157.85326754 -4.07983398 151.88476562 C-2.92143301 146.09276078 -0.09149365 141.05950557 2.53735352 135.81054688 C12.91609906 114.90667675 12.76788582 90.45450664 5.73681641 68.57421875 C1.42587556 55.92756801 -5.04505379 43.79155021 -14.69311523 34.39257812 C-16.42358398 32.60351562 -16.42358398 32.60351562 -16.42358398 30.60351562 C-17.01655273 30.33667969 -17.60952148 30.06984375 -18.22045898 29.79492188 C-20.46177023 28.58286526 -21.86936584 27.32415645 -23.67358398 25.54101562 C-42.07405682 9.15843851 -67.74650254 3.16812754 -91.80883789 4.38769531 C-116.87566039 6.45670288 -139.91528367 18.96014479 -156.30639648 37.88867188 C-160.17124087 42.84451477 -163.31902955 48.14890007 -166.42358398 53.60351562 C-167.07069336 54.69921875 -167.71780273 55.79492188 -168.38452148 56.92382812 C-181.07206366 78.98966491 -188.9362236 105.30996786 -191.42358398 130.60351562 C-191.5331543 131.60253906 -191.64272461 132.6015625 -191.75561523 133.63085938 C-193.84846474 155.7592548 -192.2506055 177.63411112 -187.01269531 199.20800781 C-185.25670078 206.8110699 -184.5860202 213.78703699 -188.04858398 220.97851562 C-191.56383354 224.86379145 -194.69495221 227.17360258 -199.85327148 227.98632812 C-205.90882238 228.26241707 -209.56076625 227.20200075 -214.42358398 223.60351562 C-218.68433949 219.30186995 -219.72082408 214.89981867 -220.98608398 209.16601562 C-221.30077637 207.780354 -221.30077637 207.780354 -221.62182617 206.36669922 C-231.14460464 162.91260303 -228.72392435 117.73480376 -214.42358398 75.60351562 C-214.19058594 74.9114502 -213.95758789 74.21938477 -213.7175293 73.50634766 C-200.71021147 35.48425148 -178.17085756 1.09329424 -141.42358398 -17.39648438 C-136.48574892 -19.6017311 -131.50636993 -21.55209792 -126.42358398 -23.39648438 C-125.38717773 -23.77804688 -124.35077148 -24.15960938 -123.28295898 -24.55273438 C-80.86966455 -38.90800326 -33.99847219 -28.06424279 0 0 Z " fill="#6A7CFF" transform="translate(349.423583984375,237.396484375)"/>
<path d="M0 0 C8.64551544 8.15299371 16.72866353 16.58524719 24 26 C25.16015625 27.43472656 25.16015625 27.43472656 26.34375 28.8984375 C48.56614637 56.81708104 48.56614637 56.81708104 47 72 C44.54432448 77.00230198 41.0029693 80.49851535 36 83 C33.64453125 83.23828125 33.64453125 83.23828125 30.8125 83.3125 C29.89082031 83.34988281 28.96914063 83.38726562 28.01953125 83.42578125 C23.09753994 82.7317359 19.56345455 80.95651723 16.48120117 77.09936523 C14.96727676 74.7949415 13.56700625 72.44972902 12.1875 70.0625 C11.14410019 68.3382459 10.09588737 66.61689546 9.04296875 64.8984375 C8.52911621 64.05893555 8.01526367 63.21943359 7.48583984 62.35449219 C4.06258209 56.92992798 0.08185514 51.94135291 -4 47 C-4.7115625 46.13616699 -4.7115625 46.13616699 -5.4375 45.25488281 C-15.01145235 33.70505618 -25.11016488 23.21346861 -37 14 C-37.54221191 13.57605957 -38.08442383 13.15211914 -38.64306641 12.71533203 C-67.82820388 -9.95844636 -101.66358028 -23.85187252 -138 -30 C-139.16160645 -30.19698486 -139.16160645 -30.19698486 -140.34667969 -30.39794922 C-193.26283823 -38.86121101 -250.58203244 -23.95361763 -294 7 C-299.52381319 11.10938975 -304.80432551 15.48567871 -310 20 C-310.54736816 20.4729248 -311.09473633 20.94584961 -311.65869141 21.43310547 C-328.22765405 35.86116351 -341.80234455 52.55709653 -353.17211914 71.32910156 C-356.28729181 76.34869642 -359.59657203 80.29828602 -365 83 C-370.25575165 83.5238576 -374.64526095 83.66505372 -379.4375 81.3125 C-383.03189049 78.06878175 -386.61677376 74.75049721 -387.30859375 69.78515625 C-387.69366483 61.65198836 -385.37794155 56.72594011 -381 50 C-380.39671875 49.04222656 -379.7934375 48.08445312 -379.171875 47.09765625 C-364.64852558 24.63369505 -346.32630396 3.22303223 -325 -13 C-324.34612305 -13.50853516 -323.69224609 -14.01707031 -323.01855469 -14.54101562 C-243.95471823 -75.8818176 -136.69324033 -82.84380494 0 0 Z " fill="#6A8BFF" transform="translate(426,145)"/>
<path d="M0 0 C0.94210831 -0.00705963 1.88421661 -0.01411926 2.85487366 -0.02139282 C41.98158734 -0.24803233 41.98158734 -0.24803233 59.8046875 3.203125 C60.82804199 3.39116699 61.85139648 3.57920898 62.90576172 3.77294922 C90.22826448 8.90127324 140.42197905 18.49768007 158.0625 42.2421875 C160.78722071 46.87299086 161.34840676 50.90689662 160.8046875 56.203125 C158.64571222 62.32022163 154.73135549 65.80341422 148.9296875 68.578125 C140.82040856 70.19998079 135.21825898 67.16697533 128.3671875 63.265625 C72.78776697 33.02439182 6.4740502 26.05888415 -54.31518555 43.39038086 C-58.30193051 44.58434512 -62.25312764 45.87011197 -66.1953125 47.203125 C-66.8661084 47.42548828 -67.5369043 47.64785156 -68.22802734 47.87695312 C-81.79781651 52.43536814 -94.83896545 58.73251486 -107.48217773 65.41113281 C-112.90861149 68.26641458 -117.04046267 69.18709773 -123.1953125 68.203125 C-128.53401115 66.39305193 -131.49686506 63.08108768 -134.1953125 58.203125 C-136.2187425 52.13283501 -135.30694655 47.65091232 -132.55859375 42.09765625 C-128.46998109 36.41577333 -121.68779019 33.59666218 -115.6328125 30.453125 C-114.61356689 29.92380371 -113.59432129 29.39448242 -112.54418945 28.84912109 C-102.99270715 23.96997041 -93.26821232 19.86829557 -83.1953125 16.203125 C-82.46602539 15.93306641 -81.73673828 15.66300781 -80.98535156 15.38476562 C-55.31451421 5.9717379 -27.39825306 0.1372669 0 0 Z " fill="#6A93FF" transform="translate(246.1953125,15.796875)"/>
<path d="M0 0 C4.77234989 2.81922151 7.72095849 5.54160108 9.203125 11.0234375 C10.40899818 17.62095516 8.45703656 22.14012543 5.671875 28.05859375 C-5.30101342 52.11893763 -7.43256074 75.99256631 1.8828125 101.07666016 C9.25647167 119.59750332 21.78046342 132.65130226 38.109375 143.80859375 C42.65756054 146.92734955 45.88885979 149.70954812 47.671875 155.05859375 C48.23571629 160.75122213 47.97907406 165.20803513 44.671875 170.05859375 C40.54422643 174.12019995 37.21887462 176.26509378 31.421875 176.68359375 C22.93315758 176.61243085 17.13852568 171.99976837 10.671875 167.05859375 C9.67671875 166.30449219 8.6815625 165.55039062 7.65625 164.7734375 C-17.50282045 144.84998366 -33.49804822 116.74874582 -38.01904297 84.95166016 C-40.73481048 59.53156145 -37.11481415 34.51538373 -25.328125 11.74609375 C-25.02044189 11.14200684 -24.71275879 10.53791992 -24.39575195 9.91552734 C-19.39929455 0.79741315 -10.15987926 -4.10827332 0 0 Z " fill="#6A73FF" transform="translate(278.328125,319.94140625)"/>
</svg>
